# xmcd
#
# Track frame offsets: 
#        150
#        8619
#        23283
#        41212
#        56278
#        79611
#        97512
#        111312
#        122035
#        142962
#        164222
#        176366
#        198491
#        220933
#        229500
#
# Disc length: 3235 seconds
#
# Revision: 1
# Processed by: cddbd v1.5.2PL0 Copyright (c) Steve Scherf et al.
# Submitted via: ExactAudioCopyFreeDBPlugin 1.0
#
DISCID=b50ca10f
DTITLE=My Chemical Romance - The Black Parade
DYEAR=2006
DGENRE=Rock
TTITLE0=The End.
TTITLE1=Dead!
TTITLE2=This Is How I Disappear
TTITLE3=The Sharpest Lives
TTITLE4=Welcome To The Black Parade
TTITLE5=I Don't Love You
TTITLE6=House Of Wolves
TTITLE7=Cancer
TTITLE8=Mama
TTITLE9=Sleep
TTITLE10=Teenagers
TTITLE11=Disenchanted
TTITLE12=Famous Last Words
TTITLE13=Secret Track
TTITLE14=Heaven Help Us
EXTD=YEAR: 2006
EXTT0=
EXTT1=
EXTT2=
EXTT3=
EXTT4=
EXTT5=
EXTT6=
EXTT7=
EXTT8=
EXTT9=
EXTT10=
EXTT11=
EXTT12=
EXTT13=
EXTT14=
PLAYORDER=
